<?xml version="1.0" encoding="iso-8859-1"?>
<!-- Uploaded to: SVG Repo, www.svgrepo.com, Generator: SVG Repo Mixer Tools -->
<svg fill="#C4C4C4" version="1.1" id="Layer_1" xmlns="http://www.w3.org/2000/svg" xmlns:xlink="http://www.w3.org/1999/xlink" 
	 viewBox="0 0 301.334 301.334" xml:space="preserve">
<g>
	<g>
		<g>
			<path d="M0.03,0v287.146h32.368v14.187h9.3v-14.187h217.425v14.187h9.3v-14.187h32.88V0H0.03z M292.004,277.846H9.33V9.3h282.673
				V277.846z"/>
			<path d="M216.538,18.837L216.538,18.837H18.868v249.472h197.67V18.837z M146.016,259.009h-56.63v-23.665h56.63V259.009z
				 M207.238,259.009L207.238,259.009h-51.921v-23.665h9.478v-9.3H70.61v9.3h9.478v23.665h-51.92V28.137h179.07V259.009z"/>
			<rect x="226.015" y="18.837" width="9.418" height="9.3"/>
			<rect x="226.015" y="37.674" width="9.418" height="9.3"/>
			<rect x="226.015" y="56.511" width="9.418" height="9.3"/>
			<rect x="226.015" y="75.348" width="9.418" height="9.3"/>
			<rect x="226.015" y="94.185" width="9.418" height="9.3"/>
			<rect x="226.015" y="117.732" width="56.511" height="9.3"/>
			<path d="M235.493,169.474c0,10.354,8.423,18.778,18.778,18.778c10.355,0,18.778-8.424,18.778-18.778
				c0-10.354-8.424-18.777-18.778-18.777C243.917,150.697,235.493,159.12,235.493,169.474z M254.27,159.997
				c5.226,0,9.478,4.251,9.478,9.477c0,5.227-4.252,9.478-9.478,9.478c-5.226,0-9.478-4.251-9.478-9.478
				C244.793,164.248,249.044,159.997,254.27,159.997z"/>
			<rect x="249.62" y="136.509" width="9.3" height="9.418"/>
			<path d="M226.074,268.309h56.393v-70.52h-56.393V268.309z M235.374,207.089h37.793v51.92h-37.793V207.089z"/>
			<rect x="244.852" y="216.626" width="18.837" height="9.3"/>
			<rect x="249.561" y="18.837" width="32.965" height="9.3"/>
			<rect x="249.561" y="37.674" width="32.965" height="9.3"/>
			<rect x="249.561" y="56.511" width="32.965" height="9.3"/>
			<rect x="249.561" y="75.348" width="32.965" height="9.3"/>
			<rect x="249.561" y="94.185" width="32.965" height="9.3"/>
			<rect x="32.935" y="70.639" width="61.221" height="9.3"/>
			<rect x="141.249" y="70.639" width="61.22" height="9.3"/>
			<path d="M136.48,47.093H98.924v70.52h37.556V47.093z M127.18,108.313h-18.956v-51.92h18.956V108.313z"/>
			<polygon points="103.634,122.382 103.634,136.45 113.052,136.45 113.052,155.347 122.352,155.347 122.352,136.45 131.771,136.45 
				131.771,122.382 122.471,122.382 122.471,127.15 112.934,127.15 112.934,122.382 			"/>
			<rect x="99.824" y="166.002" transform="matrix(0.7071 -0.7071 0.7071 0.7071 -78.265 152.3564)" width="89.908" height="9.3"/>
			
				<rect x="164.842" y="160.865" transform="matrix(-0.7071 -0.7071 0.7071 -0.7071 166.1743 417.2019)" width="9.301" height="26.639"/>
			<rect x="51.825" y="111.82" transform="matrix(-0.7071 -0.7071 0.7071 -0.7071 3.2135 264.9295)" width="9.3" height="39.959"/>
		</g>
	</g>
</g>
</svg>