<svg xmlns="http://www.w3.org/2000/svg" xmlns:xlink="http://www.w3.org/1999/xlink" width="500" zoomAndPan="magnify" viewBox="0 0 375 374.999991" height="500" preserveAspectRatio="xMidYMid meet" version="1.0"><defs><g/><clipPath id="2c5877a5f6"><path d="M 91 212 L 148 212 L 148 284 L 91 284 Z M 91 212 " clip-rule="nonzero"/></clipPath><clipPath id="88d050b3cb"><path d="M 91.128906 214.660156 L 144.078125 211.847656 L 147.730469 280.585938 L 94.78125 283.402344 Z M 91.128906 214.660156 " clip-rule="nonzero"/></clipPath><clipPath id="06ef1ca891"><path d="M 10.949219 218.921875 L 171.652344 210.378906 L 175.304688 279.121094 L 14.601562 287.664062 Z M 10.949219 218.921875 " clip-rule="nonzero"/></clipPath><clipPath id="480df5c506"><path d="M 34.914062 90.351562 L 127.9375 90.351562 L 127.9375 132.210938 L 34.914062 132.210938 Z M 34.914062 90.351562 " clip-rule="nonzero"/></clipPath><clipPath id="a10d10f356"><path d="M 19 18 L 68 18 L 68 67 L 19 67 Z M 19 18 " clip-rule="nonzero"/></clipPath><clipPath id="08b11336ae"><path d="M 15.320312 20.640625 L 117.460938 0.0976562 L 129.015625 57.554688 L 26.871094 78.09375 Z M 15.320312 20.640625 " clip-rule="nonzero"/></clipPath><clipPath id="a5ac514663"><path d="M 15.320312 20.640625 L 117.460938 0.0976562 L 129.015625 57.554688 L 26.871094 78.09375 Z M 15.320312 20.640625 " clip-rule="nonzero"/></clipPath><clipPath id="4d66fcd249"><path d="M 80 12 L 123 12 L 123 66 L 80 66 Z M 80 12 " clip-rule="nonzero"/></clipPath><clipPath id="62c920521b"><path d="M 15.320312 20.640625 L 117.460938 0.0976562 L 129.015625 57.554688 L 26.871094 78.09375 Z M 15.320312 20.640625 " clip-rule="nonzero"/></clipPath><clipPath id="241448e0a7"><path d="M 15.320312 20.640625 L 117.460938 0.0976562 L 129.015625 57.554688 L 26.871094 78.09375 Z M 15.320312 20.640625 " clip-rule="nonzero"/></clipPath><clipPath id="e5319157d5"><path d="M 0.601562 26 L 158 26 L 158 333 L 0.601562 333 Z M 0.601562 26 " clip-rule="nonzero"/></clipPath><clipPath id="2e3f42a471"><rect x="0" width="158" y="0" height="307"/></clipPath><clipPath id="404253d885"><path d="M 102 150 L 217.320312 150 L 217.320312 333 L 102 333 Z M 102 150 " clip-rule="nonzero"/></clipPath><clipPath id="11d9fe6c4c"><rect x="0" width="116" y="0" height="183"/></clipPath><clipPath id="2ff54acab0"><rect x="0" width="218" y="0" height="333"/></clipPath></defs><rect x="-37.5" width="450" fill="#ffffff" y="-37.499999" height="449.999989" fill-opacity="1"/><rect x="-37.5" width="450" fill="#000000" y="-37.499999" height="449.999989" fill-opacity="1"/><g transform="matrix(1, 0, 0, 1, 87, 42)"><g clip-path="url(#2ff54acab0)"><g clip-path="url(#2c5877a5f6)"><g clip-path="url(#88d050b3cb)"><g clip-path="url(#06ef1ca891)"><path fill="#ffffff" d="M 38.488281 271.910156 C 37.253906 266.078125 31.859375 261.796875 25.714844 262.121094 C 19.570312 262.449219 13.59375 268.332031 13.957031 275.199219 C 14.320312 282.070312 20.164062 287.324219 27.035156 286.957031 C 33.90625 286.59375 38.089844 281.800781 38.699219 275.871094 L 119.550781 271.574219 L 155.703125 231.363281 C 159.878906 233.925781 165.46875 233.164062 168.84375 229.40625 C 172.722656 225.09375 172.371094 218.488281 168.0625 214.675781 C 163.753906 210.867188 157.144531 211.152344 153.332031 215.460938 C 149.519531 219.769531 149.792969 224.855469 152.78125 228.738281 L 117.691406 267.765625 L 38.492188 271.976562 Z M 26.824219 282.996094 C 22.136719 283.246094 18.167969 279.679688 17.921875 274.988281 C 17.671875 270.300781 21.234375 266.335938 25.925781 266.085938 C 30.617188 265.835938 34.582031 269.402344 34.832031 274.089844 C 35.078125 278.78125 31.515625 282.746094 26.824219 282.996094 Z M 26.824219 282.996094 " fill-opacity="1" fill-rule="nonzero"/></g></g></g><g clip-path="url(#480df5c506)"><path fill="#ffffff" d="M 107.21875 132.089844 L 55.707031 132.089844 C 44.222656 132.089844 34.914062 122.777344 34.914062 111.296875 C 34.914062 99.816406 44.222656 90.503906 55.707031 90.503906 L 107.375 90.503906 C 118.703125 90.503906 128.011719 99.816406 128.011719 111.296875 C 128.011719 122.777344 118.703125 132.089844 107.21875 132.089844 Z M 55.707031 94.230469 C 46.242188 94.230469 38.640625 101.832031 38.640625 111.296875 C 38.640625 120.761719 46.242188 128.363281 55.707031 128.363281 L 107.375 128.363281 C 116.839844 128.363281 124.441406 120.761719 124.441406 111.296875 C 124.441406 101.832031 116.839844 94.230469 107.375 94.230469 Z M 55.707031 94.230469 " fill-opacity="1" fill-rule="nonzero"/></g><path fill="#ffffff" d="M 70.445312 114.398438 C 69.824219 114.398438 69.207031 114.089844 68.894531 113.625 C 67.652344 111.761719 65.636719 110.675781 63.464844 110.675781 C 61.292969 110.675781 59.273438 111.761719 58.035156 113.625 C 57.414062 114.554688 56.328125 114.710938 55.394531 114.089844 C 54.464844 113.46875 54.308594 112.382812 54.929688 111.453125 C 56.792969 108.660156 60.050781 106.953125 63.464844 106.953125 C 66.878906 106.953125 70.136719 108.660156 72 111.453125 C 72.617188 112.382812 72.308594 113.46875 71.53125 114.089844 C 71.222656 114.246094 70.914062 114.398438 70.445312 114.398438 Z M 70.445312 114.398438 " fill-opacity="1" fill-rule="nonzero"/><path fill="#ffffff" d="M 106.910156 114.398438 C 106.289062 114.398438 105.667969 114.089844 105.359375 113.625 C 104.117188 111.761719 102.097656 110.675781 99.925781 110.675781 C 97.753906 110.675781 95.738281 111.761719 94.496094 113.625 C 93.875 114.554688 92.789062 114.710938 91.859375 114.089844 C 90.929688 113.46875 90.773438 112.382812 91.394531 111.453125 C 93.253906 108.660156 96.511719 106.953125 99.925781 106.953125 C 103.339844 106.953125 106.597656 108.660156 108.460938 111.453125 C 109.082031 112.382812 108.769531 113.46875 107.996094 114.089844 C 107.53125 114.246094 107.21875 114.398438 106.910156 114.398438 Z M 106.910156 114.398438 " fill-opacity="1" fill-rule="nonzero"/><g clip-path="url(#a10d10f356)"><g clip-path="url(#08b11336ae)"><g clip-path="url(#a5ac514663)"><path fill="#ffffff" d="M 39.570312 27.058594 C 39.734375 28.183594 39.503906 28.832031 38.722656 29.085938 C 37.824219 29.382812 37.308594 29.078125 36.75 28.019531 C 35.929688 26.457031 34.785156 25.207031 33.175781 24.402344 C 32.046875 23.832031 30.863281 23.550781 29.609375 23.457031 C 28.832031 23.40625 28.238281 23.035156 28.171875 22.152344 C 28.097656 21.269531 28.605469 20.824219 29.339844 20.582031 C 29.617188 20.492188 29.914062 20.445312 29.964844 20.433594 C 34.0625 19.449219 38.957031 22.527344 39.570312 27.058594 Z M 25.109375 26.433594 C 24.308594 26.609375 23.582031 26.136719 23.425781 25.351562 C 23.289062 24.597656 23.75 23.902344 24.484375 23.738281 C 25.296875 23.5625 25.988281 24.003906 26.152344 24.824219 C 26.308594 25.601562 25.886719 26.261719 25.109375 26.433594 Z M 66.398438 61.261719 C 64.804688 54.964844 62.183594 49.152344 58.332031 43.914062 C 54.605469 38.863281 50.03125 34.75 44.511719 31.753906 C 43.671875 31.304688 42.847656 30.867188 42.011719 30.433594 C 41.859375 28.621094 41.707031 26.808594 40.96875 25.101562 C 39.199219 20.976562 34.660156 18.105469 30.285156 18.402344 C 25.476562 18.71875 21.375 21.808594 20.164062 26.007812 C 17.679688 32.117188 22 39.519531 28.765625 40.640625 C 32.625 41.296875 35.96875 40.152344 38.757812 37.425781 C 38.949219 37.242188 39.082031 37 39.34375 36.933594 C 40.101562 37.316406 40.867188 37.714844 41.617188 38.105469 C 52.519531 44.613281 58.183594 54.554688 60.417969 66.867188 C 60.992188 66.800781 61.546875 66.738281 62.125 66.667969 C 63.832031 66.507812 65.542969 66.335938 67.382812 66.164062 C 67.035156 64.441406 66.789062 62.828125 66.398438 61.261719 " fill-opacity="1" fill-rule="nonzero"/></g></g></g><g clip-path="url(#4d66fcd249)"><g clip-path="url(#62c920521b)"><g clip-path="url(#241448e0a7)"><path fill="#ffffff" d="M 116.847656 19.78125 C 116.25 19.984375 115.777344 19.71875 115.292969 19.429688 C 113.375 18.25 111.34375 17.855469 109.117188 18.304688 C 108.089844 18.53125 107.191406 19.085938 106.203125 19.367188 C 105.476562 19.558594 104.984375 19.214844 104.625 18.652344 C 104.207031 18.023438 104.496094 17.445312 104.921875 16.964844 C 106.4375 15.273438 108.320312 14.328125 110.628906 14.238281 C 113.570312 14.117188 115.886719 15.25 117.570312 17.613281 C 118.132812 18.382812 117.726562 19.460938 116.847656 19.78125 Z M 104.015625 23.976562 C 103.308594 24.105469 102.542969 23.601562 102.386719 22.902344 C 102.210938 22.121094 102.703125 21.40625 103.503906 21.246094 C 104.269531 21.089844 104.960938 21.535156 105.125 22.285156 C 105.296875 23.046875 104.800781 23.816406 104.015625 23.976562 Z M 120.722656 18.546875 C 118.753906 14.855469 115.617188 12.941406 111.523438 12.6875 C 104.164062 12.230469 98.339844 19.070312 100.035156 26.355469 C 99.96875 26.371094 99.925781 26.394531 99.886719 26.449219 C 99.835938 26.511719 99.777344 26.554688 99.726562 26.613281 C 98.972656 27.074219 98.257812 27.578125 97.613281 28.195312 C 93.964844 30.964844 90.949219 34.328125 88.441406 38.15625 C 83.023438 46.464844 80.582031 55.640625 80.609375 65.507812 C 80.605469 65.574219 80.652344 65.632812 80.71875 65.796875 C 82.433594 65.660156 84.183594 65.523438 85.933594 65.398438 C 86.476562 65.519531 87.011719 65.414062 87.582031 65.25 C 87.558594 61.554688 88.003906 57.945312 88.886719 54.394531 C 90.820312 46.574219 94.636719 39.890625 100.777344 34.597656 C 100.941406 34.453125 101.085938 34.277344 101.25 34.113281 C 102.089844 33.679688 102.773438 33.023438 103.519531 32.449219 C 103.851562 32.464844 104.027344 32.707031 104.277344 32.886719 C 108.261719 35.75 113.355469 35.820312 117.375 33.039062 C 121.269531 30.363281 123.011719 25.421875 121.699219 20.746094 C 121.492188 19.96875 121.257812 19.1875 120.722656 18.546875 " fill-opacity="1" fill-rule="nonzero"/></g></g></g><g clip-path="url(#e5319157d5)"><g transform="matrix(1, 0, 0, 1, 0, 26)"><g clip-path="url(#2e3f42a471)"><g fill="#ffffff" fill-opacity="1"><g transform="translate(156.58848, 94.909745)"><g><path d="M -147.40625 10.6875 C -147.40625 0.207031 -145.726562 -9.320312 -142.375 -17.90625 C -139.03125 -26.5 -134.265625 -33.832031 -128.078125 -39.90625 C -121.898438 -45.988281 -114.515625 -50.707031 -105.921875 -54.0625 C -97.328125 -57.414062 -87.796875 -59.09375 -77.328125 -59.09375 C -67.890625 -59.09375 -58.875 -57.625 -50.28125 -54.6875 C -41.695312 -51.757812 -34.15625 -47.515625 -27.65625 -41.953125 C -21.164062 -36.398438 -15.976562 -29.644531 -12.09375 -21.6875 C -8.21875 -13.726562 -6.28125 -4.71875 -6.28125 5.34375 C -6.28125 14.976562 -7.957031 23.253906 -11.3125 30.171875 C -14.664062 37.085938 -19.222656 42.796875 -24.984375 47.296875 C -30.742188 51.804688 -37.5 55.160156 -45.25 57.359375 C -53.007812 59.554688 -61.289062 60.65625 -70.09375 60.65625 L -70.09375 59.40625 C -62.550781 58.988281 -55.582031 57.15625 -49.1875 53.90625 C -42.800781 50.65625 -37.351562 46.410156 -32.84375 41.171875 C -28.34375 35.929688 -24.832031 29.957031 -22.3125 23.25 C -19.800781 16.550781 -18.546875 9.429688 -18.546875 1.890625 C -18.546875 -6.703125 -19.957031 -14.507812 -22.78125 -21.53125 C -25.613281 -28.550781 -29.546875 -34.570312 -34.578125 -39.59375 C -39.609375 -44.625 -45.679688 -48.5 -52.796875 -51.21875 C -59.921875 -53.945312 -67.78125 -55.3125 -76.375 -55.3125 C -93.351562 -55.3125 -106.609375 -50.332031 -116.140625 -40.375 C -125.671875 -30.425781 -130.4375 -16.96875 -130.4375 0 C -130.4375 9.007812 -128.394531 17.234375 -124.3125 24.671875 C -120.226562 32.109375 -115.09375 39.128906 -108.90625 45.734375 C -102.726562 52.335938 -96.023438 58.675781 -88.796875 64.75 C -81.566406 70.820312 -74.859375 76.894531 -68.671875 82.96875 C -62.492188 89.050781 -57.359375 95.335938 -53.265625 101.828125 C -49.179688 108.328125 -47.140625 115.347656 -47.140625 122.890625 C -47.140625 128.335938 -48.132812 133.257812 -50.125 137.65625 C -52.125 142.0625 -54.847656 145.726562 -58.296875 148.65625 C -61.753906 151.59375 -65.789062 153.847656 -70.40625 155.421875 C -75.019531 156.992188 -79.941406 157.78125 -85.171875 157.78125 C -87.273438 157.78125 -89.320312 157.570312 -91.3125 157.15625 C -93.300781 156.738281 -95.238281 156.320312 -97.125 155.90625 L -104.984375 153.390625 C -109.171875 152.128906 -113.148438 151.5 -116.921875 151.5 C -119.859375 151.5 -122.164062 152.648438 -123.84375 154.953125 L -121.640625 118.5 C -120.796875 122.6875 -119.328125 126.976562 -117.234375 131.375 C -115.140625 135.78125 -112.46875 139.765625 -109.21875 143.328125 C -105.976562 146.890625 -102.3125 149.875 -98.21875 152.28125 C -94.132812 154.695312 -89.679688 155.90625 -84.859375 155.90625 C -77.109375 155.90625 -70.457031 153.804688 -64.90625 149.609375 C -59.351562 145.421875 -56.578125 139.132812 -56.578125 130.75 C -56.578125 124.257812 -58.828125 118.023438 -63.328125 112.046875 C -67.835938 106.078125 -73.441406 100.210938 -80.140625 94.453125 C -86.847656 88.691406 -94.128906 82.820312 -101.984375 76.84375 C -109.847656 70.875 -117.128906 64.535156 -123.828125 57.828125 C -130.535156 51.128906 -136.140625 43.898438 -140.640625 36.140625 C -145.148438 28.390625 -147.40625 19.90625 -147.40625 10.6875 Z M -147.40625 10.6875 "/></g></g></g></g></g></g><g clip-path="url(#404253d885)"><g transform="matrix(1, 0, 0, 1, 102, 150)"><g clip-path="url(#11d9fe6c4c)"><g fill="#ffffff" fill-opacity="1"><g transform="translate(0.67147, 129.11198)"><g><path d="M 49.625 -11.390625 C 49.625 -9.066406 50.082031 -6.769531 51 -4.5 C 51.914062 -2.238281 53.601562 -0.738281 56.0625 0 L 31.984375 0 C 34.679688 -0.738281 36.425781 -2.269531 37.21875 -4.59375 C 38.007812 -6.925781 38.40625 -9.316406 38.40625 -11.765625 L 38.40625 -39.15625 L 16.359375 -79.953125 C 15.253906 -82.035156 13.90625 -84.023438 12.3125 -85.921875 C 10.71875 -87.828125 8.816406 -89.207031 6.609375 -90.0625 L 31.421875 -90.0625 C 30.203125 -89.445312 29.285156 -88.554688 28.671875 -87.390625 C 28.054688 -86.234375 27.75 -84.976562 27.75 -83.625 C 27.75 -82.03125 28.117188 -80.5625 28.859375 -79.21875 L 48.890625 -41.53125 C 53.054688 -45.695312 56.332031 -50.382812 58.71875 -55.59375 C 61.113281 -60.800781 63.289062 -66.128906 65.25 -71.578125 C 67.207031 -77.035156 69.195312 -82.367188 71.21875 -87.578125 C 73.238281 -92.785156 75.929688 -97.441406 79.296875 -101.546875 C 82.671875 -105.648438 87.023438 -108.925781 92.359375 -111.375 C 97.691406 -113.832031 104.582031 -115.0625 113.03125 -115.0625 L 113.03125 -113.59375 C 107.519531 -113.59375 102.585938 -112.210938 98.234375 -109.453125 C 93.890625 -106.691406 89.96875 -103.101562 86.46875 -98.6875 C 82.976562 -94.28125 79.734375 -89.320312 76.734375 -83.8125 C 73.734375 -78.300781 70.820312 -72.785156 68 -67.265625 C 65.1875 -61.753906 62.273438 -56.578125 59.265625 -51.734375 C 56.265625 -46.898438 53.050781 -42.890625 49.625 -39.703125 Z M 49.625 -11.390625 "/></g></g></g></g></g></g></g></g></svg>